<!-- Generated by IcoMoon.io -->
<svg version="1.1" xmlns="http://www.w3.org/2000/svg" width="31" height="32" viewBox="0 0 31 32">
<title>Facebook</title>
<path fill="#000" d="M13.008 31.046c-7.371-1.301-13.008-7.718-13.008-15.436 0-8.585 7.024-15.61 15.61-15.61s15.61 7.024 15.61 15.61c0 7.718-5.637 14.135-13.008 15.436l-0.867-0.694h-3.469l-0.867 0.694z"></path>
<path fill="#fff" d="M21.767 20.119l0.694-4.336h-4.163v-3.035c0-1.214 0.434-2.168 2.341-2.168h1.995v-3.989c-1.127-0.173-2.341-0.347-3.469-0.347-3.556 0-6.070 2.168-6.070 6.070v3.469h-3.902v4.336h3.902v11.014c0.867 0.173 1.734 0.26 2.602 0.26s1.734-0.087 2.602-0.26v-11.014h3.469z"></path>
</svg>
