<!-- Generated by IcoMoon.io -->
<svg version="1.1" xmlns="http://www.w3.org/2000/svg" width="32" height="32" viewBox="0 0 32 32">
<title>Groupes</title>
<path d="M30.154 16c0-7.817-6.337-14.154-14.154-14.154s-14.154 6.337-14.154 14.154c0 7.817 6.337 14.154 14.154 14.154s14.154-6.337 14.154-14.154zM32 16c0 8.837-7.163 16-16 16s-16-7.163-16-16c0-8.837 7.163-16 16-16s16 7.163 16 16zM7.974 16h0.187c0.372 0 0.58 0.416 0.373 0.727-0.738 1.108-1.17 2.433-1.17 3.856v0.612c0 0.149 0.009 0.295 0.026 0.439 0.032 0.276-0.175 0.519-0.452 0.519h-0.633c-1.102 0-1.998-0.923-1.998-2.059 0-2.258 1.51-4.095 3.666-4.095zM24.026 16c2.158 0 3.666 1.836 3.666 4.095 0 1.136-0.896 2.059-1.996 2.059h-0.633c-0.277 0-0.485-0.244-0.452-0.519 0.016-0.144 0.025-0.29 0.025-0.439v-0.612c0-1.423-0.431-2.748-1.169-3.856-0.207-0.311 0-0.727 0.372-0.727h0.187zM8.923 14.769c-1.358 0-2.462-1.242-2.462-2.769 0-1.681 0.966-2.769 2.462-2.769s2.462 1.088 2.462 2.769c0 1.527-1.104 2.769-2.462 2.769zM23.077 14.769c-1.358 0-2.462-1.242-2.462-2.769 0-1.681 0.966-2.769 2.462-2.769s2.462 1.088 2.462 2.769c0 1.527-1.104 2.769-2.462 2.769zM17.442 15.385c2.937 0 5.327 2.332 5.327 5.199v0.612c0 1.207-1.006 2.19-2.244 2.19h-9.051c-1.238 0-2.244-0.982-2.244-2.19v-0.612c0-2.866 2.389-5.199 5.327-5.199h2.885zM19.385 9.846c0 2.037-1.518 3.692-3.385 3.692-1.866 0-3.385-1.655-3.385-3.692 0-2.277 1.297-3.692 3.385-3.692 2.089 0 3.385 1.415 3.385 3.692z"></path>
</svg>
