<!-- Generated by IcoMoon.io -->
<svg version="1.1" xmlns="http://www.w3.org/2000/svg" width="32" height="32" viewBox="0 0 32 32">
<title>Groupes-Active</title>
<path d="M25.695 22.154h-0.631c-0.277 0-0.484-0.244-0.453-0.521 0.017-0.143 0.026-0.289 0.026-0.438v-0.612c0-1.423-0.431-2.748-1.17-3.856-0.206-0.311 0.001-0.727 0.373-0.727h0.187c2.158 0 3.666 1.836 3.666 4.095 0 1.136-0.896 2.059-1.998 2.059zM20.615 12c0-1.681 0.966-2.769 2.462-2.769s2.462 1.088 2.462 2.769c0 1.527-1.104 2.769-2.462 2.769s-2.462-1.242-2.462-2.769zM22.769 21.195c0 1.207-1.007 2.19-2.242 2.19h-9.052c-1.238 0-2.244-0.982-2.244-2.19v-0.612c0-2.866 2.39-5.199 5.327-5.199h2.886c2.937 0 5.326 2.332 5.326 5.199v0.612zM6.462 12c0-1.681 0.966-2.769 2.462-2.769s2.462 1.088 2.462 2.769c0 1.527-1.104 2.769-2.462 2.769s-2.462-1.242-2.462-2.769zM8.534 16.727c-0.738 1.108-1.17 2.433-1.17 3.856v0.612c0 0.149 0.010 0.295 0.026 0.438 0.032 0.277-0.176 0.521-0.452 0.521h-0.633c-1.102 0-1.998-0.923-1.998-2.059 0-2.258 1.51-4.095 3.666-4.095h0.187c0.372 0 0.58 0.416 0.373 0.727zM16 6.154c2.089 0 3.385 1.415 3.385 3.692 0 2.037-1.518 3.692-3.385 3.692-1.866 0-3.385-1.655-3.385-3.692 0-2.277 1.297-3.692 3.385-3.692zM16 0c-8.822 0-16 7.178-16 16 0 8.823 7.178 16 16 16 8.823 0 16-7.177 16-16 0-8.822-7.177-16-16-16z"></path>
</svg>
