<!-- Generated by IcoMoon.io -->
<svg version="1.1" xmlns="http://www.w3.org/2000/svg" width="32" height="32" viewBox="0 0 32 32">
<title>Home</title>
<path d="M20.308 28.282h4.615c0.167 0 0.308-0.142 0.308-0.308v-12c0-0.679 0.553-1.231 1.231-1.231h2.252l-12.693-10.994-12.732 10.994h2.25c0.679 0 1.231 0.551 1.231 1.231v12c0 0.166 0.142 0.308 0.308 0.308h4.615v-7.692c0-0.848 0.69-1.538 1.538-1.538h5.538c0.848 0 1.538 0.69 1.538 1.538v7.692zM24.923 30.128h-5.231c-0.679 0-1.231-0.551-1.231-1.231v-7.572c0-0.236-0.192-0.428-0.428-0.428h-4.066c-0.236 0-0.428 0.192-0.428 0.428v7.572c0 0.679-0.551 1.231-1.231 1.231h-5.231c-1.189 0-2.154-0.965-2.154-2.154v-11.385h-2.377c-0.618 0-1.218-0.325-1.478-0.886-0.293-0.633-0.137-1.355 0.378-1.808l13.324-11.542c0.304-0.292 0.747-0.474 1.216-0.481 0.496 0.007 0.94 0.19 1.278 0.512l13.285 11.506c0.002 0.002 0.004 0.004 0.005 0.005 0.516 0.453 0.672 1.175 0.379 1.808-0.261 0.561-0.86 0.886-1.479 0.886h-2.377v11.385c0 1.189-0.964 2.154-2.154 2.154z"></path>
</svg>
