<!-- Generated by IcoMoon.io -->
<svg version="1.1" xmlns="http://www.w3.org/2000/svg" width="32" height="32" viewBox="0 0 32 32">
<title>Home-Active</title>
<path d="M30.554 13.87c-0.001-0.001-0.002-0.002-0.005-0.005l-13.285-11.506c-0.338-0.322-0.782-0.505-1.278-0.512-0.469 0.007-0.912 0.19-1.216 0.481l-13.324 11.542c-0.516 0.453-0.672 1.175-0.378 1.808 0.26 0.561 0.86 0.886 1.478 0.886h2.377v11.385c0 1.189 0.965 2.154 2.154 2.154h5.231c0.679 0 1.231-0.551 1.231-1.231v-7.594c0-0.225 0.182-0.406 0.406-0.406h4.111c0.224 0 0.406 0.181 0.406 0.406v7.594c0 0.679 0.551 1.231 1.231 1.231h5.231c1.19 0 2.154-0.965 2.154-2.154v-11.385h2.377c0.618 0 1.218-0.325 1.478-0.886 0.294-0.633 0.138-1.355-0.378-1.808z"></path>
</svg>
