<!-- Generated by IcoMoon.io -->
<svg version="1.1" xmlns="http://www.w3.org/2000/svg" width="36" height="32" viewBox="0 0 36 32">
<title>Home</title>
<path d="M34.539 13.592c-0.001-0.001-0.003-0.003-0.006-0.006l-15.018-13.007c-0.383-0.365-0.883-0.57-1.444-0.579-0.53 0.008-1.031 0.214-1.375 0.544l-15.062 13.048c-0.583 0.512-0.76 1.329-0.427 2.044 0.294 0.634 0.973 1.002 1.671 1.002h2.687v12.87c0 1.344 1.091 2.435 2.435 2.435h5.913c0.768 0 1.391-0.623 1.391-1.391v-8.584c0-0.255 0.206-0.459 0.459-0.459h4.647c0.253 0 0.459 0.205 0.459 0.459v8.584c0 0.768 0.623 1.391 1.391 1.391h5.913c1.345 0 2.435-1.091 2.435-2.435v-12.87h2.687c0.698 0 1.377-0.367 1.671-1.002 0.333-0.715 0.156-1.532-0.427-2.044z"></path>
</svg>
