<!-- Generated by IcoMoon.io -->
<svg version="1.1" xmlns="http://www.w3.org/2000/svg" width="32" height="32" viewBox="0 0 32 32">
<title>MarketPlace-Active</title>
<path d="M11.52 27.84v-7.424c0-0.673 0.543-1.216 1.216-1.216h5.235c0.673 0 1.216 0.543 1.216 1.216v7.424h6.374c0.55 0 0.998-0.445 0.998-0.998v-10.578c-0.159-0.093-0.31-0.204-0.448-0.328l-0.525-0.474c-0.243-0.218-0.576-0.218-0.819 0l-0.218 0.192c-0.704 0.627-1.6 0.973-2.522 0.973h-0.294c-0.909 0-1.805-0.333-2.509-0.96l-0.243-0.218c-0.243-0.218-0.576-0.218-0.819 0l-0.243 0.218c-0.704 0.627-1.6 0.973-2.509 0.973h-0.179c-0.909 0-1.792-0.333-2.483-0.947l-0.282-0.243c-0.243-0.218-0.576-0.218-0.819 0l-0.23 0.205c-0.704 0.627-1.6 0.973-2.522 0.973h-0.23c-0.922 0-1.805-0.333-2.509-0.96l-0.256-0.218c-0.23-0.218-0.563-0.218-0.806 0l-0.614 0.55c-0.097 0.086-0.2 0.165-0.307 0.234v10.607c0 0.55 0.445 0.998 0.998 0.998h6.349zM28.48 16.582v10.259c0 1.615-1.309 2.918-2.918 2.918h-20.39c-1.615 0-2.918-1.309-2.918-2.918v-10.226c-1.271-0.178-2.253-1.329-2.253-2.728v-3.008c0-0.358 0.282-0.64 0.64-0.64h29.453c0.358 0 0.64 0.282 0.64 0.64v2.79c0 1.439-0.968 2.641-2.253 2.912v0zM29.389 8.96h-28.070c-0.448 0-0.755-0.461-0.589-0.883l2.33-5.747c0.243-0.627 0.832-1.050 1.498-1.050h21.594c0.666 0 1.254 0.422 1.498 1.062l2.33 5.734c0.179 0.422-0.141 0.883-0.589 0.883z"></path>
</svg>
