<!-- Generated by IcoMoon.io -->
<svg version="1.1" xmlns="http://www.w3.org/2000/svg" width="32" height="32" viewBox="0 0 32 32">
<title>MarketPlace</title>
<path d="M20.667 29h5.667c0.552 0 1-0.448 1-1v-12h0.041c-0.223-0.111-0.433-0.247-0.627-0.408l-0.535-0.447c-0.124-0.101-0.303-0.101-0.427 0.001l-0.219 0.183c-0.78 0.648-1.761 1.004-2.775 1.004h-0.301c-1.007 0-1.983-0.351-2.759-0.992l-0.245-0.203c-0.124-0.101-0.301-0.101-0.424 0l-0.247 0.204c-0.777 0.64-1.753 0.991-2.759 0.991h-0.183c-0.993 0-1.957-0.341-2.728-0.967l-0.288-0.233c-0.124-0.1-0.301-0.099-0.423 0.003l-0.231 0.193c-0.78 0.649-1.761 1.004-2.775 1.004h-0.237c-1.004 0-1.976-0.348-2.752-0.985l-0.259-0.213c-0.124-0.101-0.3-0.101-0.424 0l-0.628 0.517c-0.164 0.135-0.343 0.252-0.529 0.348h0.064v12c0 0.552 0.448 1 1 1h5.667v-8.333c0-0.92 0.747-1.667 1.667-1.667h6c0.92 0 1.667 0.747 1.667 1.667v8.333zM2.231 9h27.539c-0.036-0.12-0.075-0.239-0.119-0.356l-1.535-4.171c-0.352-0.889-1.212-1.473-2.168-1.473h-19.895c-0.957 0-1.817 0.584-2.161 1.451l-1.543 4.193c-0.044 0.117-0.083 0.236-0.119 0.356zM30 11h-28v2.333c0 0.552 0.448 1 1 1h0.228c0.232 0 0.456-0.080 0.635-0.227l0.628-0.516c0.86-0.708 2.103-0.708 2.963 0l0.259 0.212c0.417 0.343 0.941 0.531 1.483 0.531h0.237c0.545 0 1.075-0.191 1.493-0.54l0.232-0.193c0.856-0.713 2.097-0.721 2.961-0.020l0.288 0.232c0.416 0.337 0.935 0.521 1.469 0.521h0.183c0.541 0 1.067-0.189 1.485-0.533l0.247-0.204c0.861-0.712 2.108-0.712 2.971 0l0.245 0.204c0.417 0.344 0.943 0.533 1.485 0.533h0.301c0.545 0 1.075-0.192 1.495-0.541l0.219-0.181c0.864-0.723 2.123-0.723 2.987-0.001l0.536 0.447c0.215 0.179 0.487 0.277 0.768 0.277 0.665 0 1.203-0.537 1.203-1.2v-2.133zM29.333 16.289v11.711c0 1.657-1.343 3-3 3h-20.667c-1.657 0-3-1.343-3-3v-11.685c-1.5-0.165-2.667-1.437-2.667-2.981v-2.732c0-0.905 0.16-1.801 0.472-2.649l1.552-4.216c0.656-1.652 2.252-2.736 4.029-2.736h19.895c1.776 0 3.372 1.084 4.036 2.759l1.544 4.193c0.312 0.848 0.472 1.744 0.472 2.649v2.532c0 1.585-1.153 2.901-2.667 3.156zM18.667 29v-8h-5.333v8h5.333z"></path>
</svg>
