<!-- Generated by IcoMoon.io -->
<svg version="1.1" xmlns="http://www.w3.org/2000/svg" width="35" height="32" viewBox="0 0 35 32">
<title>MarketPlace-Active</title>
<path d="M12.522 28.87v-8.070c0-0.732 0.59-1.322 1.322-1.322h5.69c0.732 0 1.322 0.59 1.322 1.322v8.070h6.929c0.598 0 1.085-0.484 1.085-1.085v-11.498c-0.173-0.102-0.337-0.221-0.487-0.356l-0.57-0.515c-0.264-0.237-0.626-0.237-0.89 0l-0.237 0.209c-0.765 0.682-1.739 1.057-2.741 1.057h-0.32c-0.988 0-1.962-0.362-2.727-1.043l-0.264-0.237c-0.264-0.237-0.626-0.237-0.89 0l-0.264 0.237c-0.765 0.682-1.739 1.057-2.727 1.057h-0.195c-0.988 0-1.948-0.362-2.699-1.030l-0.306-0.264c-0.264-0.237-0.626-0.237-0.89 0l-0.25 0.223c-0.765 0.682-1.739 1.057-2.741 1.057h-0.25c-1.002 0-1.962-0.362-2.727-1.043l-0.278-0.237c-0.25-0.237-0.612-0.237-0.877 0l-0.668 0.598c-0.106 0.093-0.217 0.179-0.334 0.255v11.53c0 0.598 0.484 1.085 1.085 1.085h6.901zM30.957 16.633v11.151c0 1.756-1.423 3.172-3.172 3.172h-22.163c-1.756 0-3.172-1.423-3.172-3.172v-11.115c-1.382-0.193-2.449-1.444-2.449-2.965v-3.27c0-0.39 0.306-0.696 0.696-0.696h32.014c0.39 0 0.696 0.306 0.696 0.696v3.033c0 1.564-1.052 2.87-2.449 3.165v0zM31.944 8.348h-30.511c-0.487 0-0.821-0.501-0.64-0.96l2.532-6.247c0.264-0.682 0.904-1.141 1.628-1.141h23.471c0.723 0 1.363 0.459 1.628 1.155l2.532 6.233c0.195 0.459-0.153 0.96-0.64 0.96z"></path>
</svg>
