<!-- Generated by IcoMoon.io -->
<svg version="1.1" xmlns="http://www.w3.org/2000/svg" width="32" height="32" viewBox="0 0 32 32">
<title>Messenger</title>
<path d="M15.239 0c8.584 0 15.238 6.288 15.238 14.781s-6.654 14.781-15.238 14.781c-1.49 0.003-2.974-0.193-4.411-0.585-0.27-0.075-0.558-0.053-0.814 0.060l-3.029 1.335c-0.183 0.081-0.383 0.115-0.582 0.1s-0.392-0.078-0.561-0.185c-0.169-0.106-0.309-0.253-0.409-0.426s-0.154-0.368-0.161-0.568l-0.083-2.71c-0.006-0.165-0.045-0.327-0.115-0.476s-0.17-0.283-0.294-0.392c-1.529-1.377-2.746-3.065-3.571-4.951s-1.237-3.925-1.21-5.983c0-8.493 6.654-14.781 15.238-14.781zM6.089 19.103c-0.091 0.143-0.128 0.314-0.105 0.482s0.103 0.323 0.228 0.438c0.125 0.115 0.286 0.182 0.456 0.189s0.336-0.044 0.471-0.147l4.808-3.649c0.159-0.12 0.352-0.184 0.551-0.184s0.392 0.065 0.551 0.184l3.556 2.667c0.253 0.189 0.541 0.323 0.849 0.395s0.626 0.079 0.936 0.022 0.605-0.178 0.866-0.355c0.261-0.177 0.483-0.406 0.651-0.673l4.476-7.101c0.090-0.143 0.128-0.314 0.105-0.482s-0.103-0.323-0.228-0.438c-0.125-0.115-0.286-0.182-0.456-0.189s-0.336 0.044-0.471 0.147l-4.808 3.65c-0.159 0.12-0.352 0.184-0.551 0.184s-0.392-0.065-0.551-0.184l-3.556-2.667c-0.253-0.189-0.541-0.323-0.849-0.395s-0.626-0.079-0.936-0.022c-0.31 0.057-0.605 0.178-0.866 0.355s-0.483 0.406-0.651 0.673l-4.476 7.101z"></path>
</svg>
