<!-- Generated by IcoMoon.io -->
<svg version="1.1" xmlns="http://www.w3.org/2000/svg" width="32" height="32" viewBox="0 0 32 32">
<title>Notifications</title>
<path d="M7.507 28.151c1.829 0 4.835-0.168 8.901-0.917-0.703 1.912-2.536 3.282-4.688 3.282-1.79 0-3.357-0.948-4.242-2.365h0.030zM30.467 17.72c0.332 1.71-0.867 3.223-3.567 4.499-1.479 0.698-4.768 2.026-10.2 3.083-4.19 0.814-7.259 1-9.191 1-0.574 0-1.049-0.016-1.423-0.038-2.979-0.171-4.66-1.125-4.992-2.836-0.504-2.591 0.293-3.591 1.615-5.248l0.348-0.437c0.891-1.131 1.24-2.241 0.67-5.171-1.276-6.561 1.679-11.045 8.106-12.301 6.43-1.241 10.85 1.806 12.126 8.368 0.569 2.93 1.308 3.828 2.559 4.542v0.001l0.487 0.276c1.845 1.041 2.958 1.669 3.462 4.261z"></path>
</svg>
