<!-- Generated by IcoMoon.io -->
<svg version="1.1" xmlns="http://www.w3.org/2000/svg" width="32" height="32" viewBox="0 0 32 32">
<title>Watch</title>
<path d="M9 31c-0.552 0-1-0.448-1-1s0.448-1 1-1h14c0.552 0 1 0.448 1 1s-0.448 1-1 1h-14zM20.217 14.461l-6.811 4.103c-0.619 0.372-1.407-0.072-1.407-0.795v-8.207c0-0.721 0.788-1.167 1.407-0.795l6.811 4.104c0.599 0.36 0.599 1.228 0 1.589zM26.333 24.333c1.656 0 3-1.344 3-3v-15.333c0-1.656-1.344-3-3-3h-20.667c-1.656 0-3 1.344-3 3v15.333c0 1.656 1.344 3 3 3h20.667zM26.333 26.333h-20.667c-2.761 0-5-2.239-5-5v-15.333c0-2.761 2.239-5 5-5h20.667c2.761 0 5 2.239 5 5v15.333c0 2.761-2.239 5-5 5z"></path>
</svg>
