<!-- Generated by IcoMoon.io -->
<svg version="1.1" xmlns="http://www.w3.org/2000/svg" width="32" height="32" viewBox="0 0 32 32">
<title>Watch-Active</title>
<path d="M8.696 31.304c-0.576 0-1.043-0.467-1.043-1.043s0.467-1.043 1.043-1.043h14.609c0.576 0 1.043 0.467 1.043 1.043s-0.467 1.043-1.043 1.043h-14.609zM20.402 14.047l-7.108 4.281c-0.646 0.388-1.468-0.075-1.468-0.829v-8.563c0-0.753 0.822-1.217 1.468-0.829l7.108 4.282c0.623 0.376 0.623 1.281 0 1.658zM26.783 0h-21.565c-2.877 0-5.217 2.34-5.217 5.217v16c0 2.877 2.34 5.217 5.217 5.217h21.565c2.877 0 5.217-2.34 5.217-5.217v-16c0-2.877-2.34-5.217-5.217-5.217z"></path>
</svg>
