<svg aria-hidden="true" style="position: absolute; width: 0; height: 0; overflow: hidden;" version="1.1" xmlns="http://www.w3.org/2000/svg" xmlns:xlink="http://www.w3.org/1999/xlink">
<defs>
<symbol id="icon-Facebook" viewBox="0 0 31 32">
<path fill="#000" style="fill: var(--color1, #000)" d="M13.008 31.046c-7.371-1.301-13.008-7.718-13.008-15.436 0-8.585 7.024-15.61 15.61-15.61s15.61 7.024 15.61 15.61c0 7.718-5.637 14.135-13.008 15.436l-0.867-0.694h-3.469l-0.867 0.694z"></path>
<path fill="#fff" style="fill: var(--color2, #fff)" d="M21.767 20.119l0.694-4.336h-4.163v-3.035c0-1.214 0.434-2.168 2.341-2.168h1.995v-3.989c-1.127-0.173-2.341-0.347-3.469-0.347-3.556 0-6.070 2.168-6.070 6.070v3.469h-3.902v4.336h3.902v11.014c0.867 0.173 1.734 0.26 2.602 0.26s1.734-0.087 2.602-0.26v-11.014h3.469z"></path>
</symbol>
<symbol id="icon-Home" viewBox="0 0 36 32">
<path d="M34.539 13.592c-0.001-0.001-0.003-0.003-0.006-0.006l-15.018-13.007c-0.383-0.365-0.883-0.57-1.444-0.579-0.53 0.008-1.031 0.214-1.375 0.544l-15.062 13.048c-0.583 0.512-0.76 1.329-0.427 2.044 0.294 0.634 0.973 1.002 1.671 1.002h2.687v12.87c0 1.344 1.091 2.435 2.435 2.435h5.913c0.768 0 1.391-0.623 1.391-1.391v-8.584c0-0.255 0.206-0.459 0.459-0.459h4.647c0.253 0 0.459 0.205 0.459 0.459v8.584c0 0.768 0.623 1.391 1.391 1.391h5.913c1.345 0 2.435-1.091 2.435-2.435v-12.87h2.687c0.698 0 1.377-0.367 1.671-1.002 0.333-0.715 0.156-1.532-0.427-2.044z"></path>
</symbol>
<symbol id="icon-MarketPlace-Active" viewBox="0 0 35 32">
<path d="M12.522 28.87v-8.070c0-0.732 0.59-1.322 1.322-1.322h5.69c0.732 0 1.322 0.59 1.322 1.322v8.070h6.929c0.598 0 1.085-0.484 1.085-1.085v-11.498c-0.173-0.102-0.337-0.221-0.487-0.356l-0.57-0.515c-0.264-0.237-0.626-0.237-0.89 0l-0.237 0.209c-0.765 0.682-1.739 1.057-2.741 1.057h-0.32c-0.988 0-1.962-0.362-2.727-1.043l-0.264-0.237c-0.264-0.237-0.626-0.237-0.89 0l-0.264 0.237c-0.765 0.682-1.739 1.057-2.727 1.057h-0.195c-0.988 0-1.948-0.362-2.699-1.030l-0.306-0.264c-0.264-0.237-0.626-0.237-0.89 0l-0.25 0.223c-0.765 0.682-1.739 1.057-2.741 1.057h-0.25c-1.002 0-1.962-0.362-2.727-1.043l-0.278-0.237c-0.25-0.237-0.612-0.237-0.877 0l-0.668 0.598c-0.106 0.093-0.217 0.179-0.334 0.255v11.53c0 0.598 0.484 1.085 1.085 1.085h6.901zM30.957 16.633v11.151c0 1.756-1.423 3.172-3.172 3.172h-22.163c-1.756 0-3.172-1.423-3.172-3.172v-11.115c-1.382-0.193-2.449-1.444-2.449-2.965v-3.27c0-0.39 0.306-0.696 0.696-0.696h32.014c0.39 0 0.696 0.306 0.696 0.696v3.033c0 1.564-1.052 2.87-2.449 3.165v0zM31.944 8.348h-30.511c-0.487 0-0.821-0.501-0.64-0.96l2.532-6.247c0.264-0.682 0.904-1.141 1.628-1.141h23.471c0.723 0 1.363 0.459 1.628 1.155l2.532 6.233c0.195 0.459-0.153 0.96-0.64 0.96z"></path>
</symbol>
<symbol id="icon-MarketPlace" viewBox="0 0 32 32">
<path d="M20.667 29h5.667c0.552 0 1-0.448 1-1v-12h0.041c-0.223-0.111-0.433-0.247-0.627-0.408l-0.535-0.447c-0.124-0.101-0.303-0.101-0.427 0.001l-0.219 0.183c-0.78 0.648-1.761 1.004-2.775 1.004h-0.301c-1.007 0-1.983-0.351-2.759-0.992l-0.245-0.203c-0.124-0.101-0.301-0.101-0.424 0l-0.247 0.204c-0.777 0.64-1.753 0.991-2.759 0.991h-0.183c-0.993 0-1.957-0.341-2.728-0.967l-0.288-0.233c-0.124-0.1-0.301-0.099-0.423 0.003l-0.231 0.193c-0.78 0.649-1.761 1.004-2.775 1.004h-0.237c-1.004 0-1.976-0.348-2.752-0.985l-0.259-0.213c-0.124-0.101-0.3-0.101-0.424 0l-0.628 0.517c-0.164 0.135-0.343 0.252-0.529 0.348h0.064v12c0 0.552 0.448 1 1 1h5.667v-8.333c0-0.92 0.747-1.667 1.667-1.667h6c0.92 0 1.667 0.747 1.667 1.667v8.333zM2.231 9h27.539c-0.036-0.12-0.075-0.239-0.119-0.356l-1.535-4.171c-0.352-0.889-1.212-1.473-2.168-1.473h-19.895c-0.957 0-1.817 0.584-2.161 1.451l-1.543 4.193c-0.044 0.117-0.083 0.236-0.119 0.356zM30 11h-28v2.333c0 0.552 0.448 1 1 1h0.228c0.232 0 0.456-0.080 0.635-0.227l0.628-0.516c0.86-0.708 2.103-0.708 2.963 0l0.259 0.212c0.417 0.343 0.941 0.531 1.483 0.531h0.237c0.545 0 1.075-0.191 1.493-0.54l0.232-0.193c0.856-0.713 2.097-0.721 2.961-0.020l0.288 0.232c0.416 0.337 0.935 0.521 1.469 0.521h0.183c0.541 0 1.067-0.189 1.485-0.533l0.247-0.204c0.861-0.712 2.108-0.712 2.971 0l0.245 0.204c0.417 0.344 0.943 0.533 1.485 0.533h0.301c0.545 0 1.075-0.192 1.495-0.541l0.219-0.181c0.864-0.723 2.123-0.723 2.987-0.001l0.536 0.447c0.215 0.179 0.487 0.277 0.768 0.277 0.665 0 1.203-0.537 1.203-1.2v-2.133zM29.333 16.289v11.711c0 1.657-1.343 3-3 3h-20.667c-1.657 0-3-1.343-3-3v-11.685c-1.5-0.165-2.667-1.437-2.667-2.981v-2.732c0-0.905 0.16-1.801 0.472-2.649l1.552-4.216c0.656-1.652 2.252-2.736 4.029-2.736h19.895c1.776 0 3.372 1.084 4.036 2.759l1.544 4.193c0.312 0.848 0.472 1.744 0.472 2.649v2.532c0 1.585-1.153 2.901-2.667 3.156zM18.667 29v-8h-5.333v8h5.333z"></path>
</symbol>
<symbol id="icon-Watch" viewBox="0 0 32 32">
<path d="M9 31c-0.552 0-1-0.448-1-1s0.448-1 1-1h14c0.552 0 1 0.448 1 1s-0.448 1-1 1h-14zM20.217 14.461l-6.811 4.103c-0.619 0.372-1.407-0.072-1.407-0.795v-8.207c0-0.721 0.788-1.167 1.407-0.795l6.811 4.104c0.599 0.36 0.599 1.228 0 1.589zM26.333 24.333c1.656 0 3-1.344 3-3v-15.333c0-1.656-1.344-3-3-3h-20.667c-1.656 0-3 1.344-3 3v15.333c0 1.656 1.344 3 3 3h20.667zM26.333 26.333h-20.667c-2.761 0-5-2.239-5-5v-15.333c0-2.761 2.239-5 5-5h20.667c2.761 0 5 2.239 5 5v15.333c0 2.761-2.239 5-5 5z"></path>
</symbol>
</defs>
</svg>
