<svg width="40" height="41" viewBox="0 0 40 41" fill="none" xmlns="http://www.w3.org/2000/svg">
<path d="M16.6667 39.7778C7.22222 38.1111 0 29.8889 0 20C0 9 9 0 20 0C31 0 40 9 40 20C40 29.8889 32.7778 38.1111 23.3333 39.7778L22.2222 38.8889H17.7778L16.6667 39.7778Z" fill="url(#paint0_linear)"/>
<path d="M27.8889 25.7778L28.7778 20.2222H23.4444V16.3333C23.4444 14.7778 24 13.5556 26.4444 13.5556H29V8.44444C27.5556 8.22222 26 8 24.5556 8C20 8 16.7778 10.7778 16.7778 15.7778V20.2222H11.7778V25.7778H16.7778V39.8889C17.8889 40.1111 19 40.2222 20.1111 40.2222C21.2222 40.2222 22.3333 40.1111 23.4444 39.8889V25.7778H27.8889Z" fill="white"/>
<defs>
<linearGradient id="paint0_linear" x1="-0.722215" y1="38.6156" x2="-0.722215" y2="0" gradientUnits="userSpaceOnUse">
<stop stop-color="#0062E0"/>
<stop offset="1" stop-color="#19AFFF"/>
</linearGradient>
</defs>
</svg>
