<svg width="26" height="23" viewBox="0 0 26 23" fill="none" xmlns="http://www.w3.org/2000/svg">
<path d="M24.825 9.769C24.824 9.768 24.823 9.767 24.821 9.765L14.027 0.416C13.752 0.154 13.392 0.006 12.989 0C12.608 0.006 12.248 0.154 12.001 0.391L1.175 9.769C0.756001 10.137 0.629001 10.724 0.868001 11.238C1.079 11.694 1.567 11.958 2.069 11.958H4V21.208C4 22.174 4.784 22.958 5.75 22.958H10C10.552 22.958 11 22.51 11 21.958V15.788C11 15.605 11.148 15.458 11.33 15.458H14.67C14.852 15.458 15 15.605 15 15.788V21.958C15 22.51 15.448 22.958 16 22.958H20.25C21.217 22.958 22 22.174 22 21.208V11.958H23.931C24.433 11.958 24.921 11.694 25.132 11.238C25.371 10.724 25.244 10.137 24.825 9.769Z" fill="black"/>
</svg>
