<svg width="24" height="24" viewBox="0 0 24 24" fill="none" xmlns="http://www.w3.org/2000/svg">
<path d="M15.5 21.75H19.75C20.164 21.75 20.5 21.414 20.5 21V12H20.531C20.364 11.917 20.206 11.815 20.061 11.694L19.66 11.359C19.567 11.283 19.433 11.283 19.34 11.36L19.176 11.497C18.591 11.983 17.855 12.25 17.095 12.25H16.869C16.114 12.25 15.382 11.987 14.8 11.506L14.616 11.354C14.523 11.278 14.39 11.278 14.298 11.354L14.113 11.507C13.53 11.987 12.798 12.25 12.044 12.25H11.907C11.162 12.25 10.439 11.994 9.861 11.525L9.645 11.35C9.552 11.275 9.419 11.276 9.328 11.352L9.155 11.497C8.57 11.984 7.834 12.25 7.074 12.25H6.896C6.143 12.25 5.414 11.989 4.832 11.511L4.638 11.351C4.545 11.275 4.413 11.275 4.32 11.351L3.849 11.739C3.726 11.84 3.592 11.928 3.452 12H3.5V21C3.5 21.414 3.836 21.75 4.25 21.75H8.5V15.5C8.5 14.81 9.06 14.25 9.75 14.25H14.25C14.94 14.25 15.5 14.81 15.5 15.5V21.75ZM1.673 6.75H22.327C22.3 6.66 22.271 6.571 22.238 6.483L21.087 3.355C20.823 2.688 20.178 2.25 19.461 2.25H4.54C3.822 2.25 3.177 2.688 2.919 3.338L1.762 6.483C1.729 6.571 1.7 6.66 1.673 6.75ZM22.5 8.25H1.5V10C1.5 10.414 1.836 10.75 2.25 10.75H2.421C2.595 10.75 2.763 10.69 2.897 10.58L3.368 10.193C4.013 9.662 4.945 9.662 5.59 10.193L5.784 10.352C6.097 10.609 6.49 10.75 6.896 10.75H7.074C7.483 10.75 7.88 10.607 8.194 10.345L8.368 10.2C9.01 9.665 9.941 9.659 10.589 10.185L10.805 10.359C11.117 10.612 11.506 10.75 11.907 10.75H12.044C12.45 10.75 12.844 10.608 13.158 10.35L13.343 10.197C13.989 9.663 14.924 9.663 15.571 10.197L15.755 10.35C16.068 10.608 16.462 10.75 16.869 10.75H17.095C17.504 10.75 17.901 10.606 18.216 10.344L18.38 10.208C19.028 9.666 19.972 9.666 20.62 10.207L21.022 10.542C21.183 10.676 21.387 10.75 21.598 10.75C22.097 10.75 22.5 10.347 22.5 9.85V8.25ZM22 12.217V21C22 22.243 20.993 23.25 19.75 23.25H4.25C3.007 23.25 2 22.243 2 21V12.236C0.875 12.112 0 11.158 0 10V7.951C0 7.272 0.12 6.6 0.354 5.964L1.518 2.802C2.01 1.563 3.207 0.75 4.54 0.75H19.461C20.793 0.75 21.99 1.563 22.488 2.819L23.646 5.964C23.88 6.6 24 7.272 24 7.951V9.85C24 11.039 23.135 12.026 22 12.217ZM14 21.75V15.75H10V21.75H14Z" fill="black"/>
</svg>
