<svg width="25" height="23" viewBox="0 0 25 23" fill="none" xmlns="http://www.w3.org/2000/svg">
<path d="M9 20.75V14.95C9 14.424 9.424 14 9.95 14H14.04C14.566 14 14.99 14.424 14.99 14.95V20.75H19.97C20.4 20.75 20.75 20.402 20.75 19.97V11.706C20.626 11.633 20.508 11.547 20.4 11.45L19.99 11.08C19.8 10.91 19.54 10.91 19.35 11.08L19.18 11.23C18.63 11.72 17.93 11.99 17.21 11.99H16.98C16.27 11.99 15.57 11.73 15.02 11.24L14.83 11.07C14.64 10.9 14.38 10.9 14.19 11.07L14 11.24C13.45 11.73 12.75 12 12.04 12H11.9C11.19 12 10.5 11.74 9.96 11.26L9.74 11.07C9.55 10.9 9.29 10.9 9.1 11.07L8.92 11.23C8.37 11.72 7.67 11.99 6.95 11.99H6.77C6.05 11.99 5.36 11.73 4.81 11.24L4.61 11.07C4.43 10.9 4.17 10.9 3.98 11.07L3.5 11.5C3.424 11.567 3.344 11.629 3.26 11.683V19.97C3.26 20.4 3.608 20.75 4.04 20.75H9V20.75ZM22.25 11.955V19.97C22.25 21.232 21.227 22.25 19.97 22.25H4.04C2.778 22.25 1.76 21.227 1.76 19.97V11.981C0.767 11.842 0 10.943 0 9.85V7.5C0 7.22 0.22 7 0.5 7H23.51C23.79 7 24.01 7.22 24.01 7.5V9.68C24.01 10.804 23.254 11.743 22.25 11.955V11.955ZM22.96 6H1.03C0.68 6 0.44 5.64 0.57 5.31L2.39 0.82C2.58 0.33 3.04 0 3.56 0H20.43C20.95 0 21.41 0.33 21.6 0.83L23.42 5.31C23.56 5.64 23.31 6 22.96 6Z" fill="black"/>
</svg>
