<svg width="16" height="17" viewBox="0 0 16 17" fill="none" xmlns="http://www.w3.org/2000/svg">
<path d="M3.48826 14.9551C4.45969 14.9551 6.05684 14.8658 8.21684 14.468C7.84326 15.4837 6.86969 16.2115 5.72612 16.2115C4.77541 16.2115 3.94255 15.708 3.47255 14.9551H3.48826ZM15.6854 9.41367C15.8618 10.3222 15.2247 11.1258 13.7904 11.8037C13.0047 12.1744 11.2575 12.8801 8.37184 13.4415C6.14612 13.8737 4.51541 13.973 3.48898 13.973C3.18398 13.973 2.93184 13.9644 2.73326 13.953C1.15041 13.8622 0.257549 13.3551 0.0811208 12.4465C-0.186736 11.0701 0.236835 10.5387 0.938978 9.65867L1.12398 9.42652C1.59755 8.82581 1.78255 8.23581 1.47969 6.67938C0.801835 3.19367 2.37184 0.811524 5.78612 0.144382C9.20184 -0.514904 11.5504 1.10367 12.2283 4.5901C12.5304 6.14652 12.9233 6.62367 13.5876 7.00295V7.00367L13.8461 7.1501C14.8261 7.70295 15.4176 8.03652 15.6854 9.41367Z" fill="black"/>
</svg>
