<svg width="23" height="23" viewBox="0 0 23 23" fill="none" xmlns="http://www.w3.org/2000/svg">
<path d="M6.25 22.5C5.836 22.5 5.5 22.164 5.5 21.75C5.5 21.336 5.836 21 6.25 21H16.75C17.164 21 17.5 21.336 17.5 21.75C17.5 22.164 17.164 22.5 16.75 22.5H6.25ZM14.664 10.096L9.555 13.173C9.091 13.452 8.5 13.119 8.5 12.577V6.422C8.5 5.881 9.091 5.547 9.555 5.826L14.664 8.904C15.112 9.174 15.112 9.825 14.664 10.096ZM19.25 0H3.75C1.682 0 0 1.682 0 3.75V15.25C0 17.318 1.682 19 3.75 19H19.25C21.318 19 23 17.318 23 15.25V3.75C23 1.682 21.318 0 19.25 0Z" fill="black"/>
</svg>
